<?xml version="1.0" standalone="no"?>
<!DOCTYPE svg PUBLIC "-//W3C//DTD SVG 20010904//EN"
 "http://www.w3.org/TR/2001/REC-SVG-20010904/DTD/svg10.dtd">
<svg version="1.0" xmlns="http://www.w3.org/2000/svg"
 width="720.000000pt" height="540.000000pt" viewBox="0 0 720.000000 540.000000"
 preserveAspectRatio="xMidYMid meet">

<g transform="translate(0.000000,540.000000) scale(0.100000,-0.100000)"
fill="#000000" stroke="none">
<path d="M3525 3750 c-110 -20 -210 -75 -285 -156 -39 -42 -53 -51 -103 -61
-174 -36 -315 -163 -367 -330 -27 -87 -27 -209 0 -295 20 -64 20 -64 0 -117
-45 -118 -33 -271 31 -392 38 -71 136 -167 207 -203 29 -15 83 -34 121 -42 60
-14 72 -21 104 -59 84 -100 228 -165 366 -165 140 0 248 45 348 145 55 55 68
63 120 74 143 28 271 128 336 261 63 127 72 248 28 377 l-20 59 20 65 c17 51
20 84 17 169 -3 97 -6 111 -41 183 -66 141 -211 256 -344 274 -41 5 -56 15
-108 65 -33 32 -82 72 -110 88 -91 52 -223 77 -320 60z m188 -35 c80 -21 144
-55 206 -111 l53 -48 -75 -13 c-79 -13 -141 -38 -242 -96 l-60 -35 -75 44
c-84 50 -182 84 -241 84 -21 0 -39 5 -39 10 0 18 88 96 139 123 100 55 225 70
334 42z m-558 -249 c-31 -69 -45 -150 -45 -255 l0 -86 -72 -40 c-99 -55 -148
-95 -194 -154 l-39 -52 -13 38 c-21 60 -26 156 -12 225 34 174 175 323 345
364 28 7 51 13 52 13 1 1 -9 -23 -22 -53z m177 43 c48 -10 180 -71 222 -102
13 -10 -15 -30 -190 -132 -114 -66 -210 -121 -215 -123 -14 -6 -10 178 5 233
7 28 23 69 35 93 19 37 25 42 56 42 19 0 58 -5 87 -11z m678 -21 c11 -18 27
-55 36 -83 18 -58 32 -270 17 -264 -5 2 -105 60 -222 128 -174 101 -210 126
-199 137 24 23 152 88 198 100 25 7 69 13 98 13 49 1 54 -1 72 -31z m76 18
c164 -44 300 -187 335 -354 13 -62 7 -175 -12 -234 l-12 -37 -63 68 c-43 46
-93 86 -154 122 l-90 53 0 106 c0 111 -15 184 -49 250 -23 45 -24 45 45 26z
m-250 -262 l234 -137 0 -262 0 -263 -42 -25 c-24 -14 -45 -24 -46 -22 -2 2
-75 176 -161 387 l-157 383 -56 3 c-38 2 -57 -1 -61 -10 -2 -7 -69 -179 -147
-383 -78 -203 -145 -376 -147 -382 -4 -10 10 -13 50 -13 l56 0 19 53 c11 28
30 82 43 120 l24 67 165 0 165 0 45 -120 45 -120 50 0 50 0 -165 -96 c-91 -53
-174 -101 -186 -106 -18 -8 -58 11 -248 122 l-226 132 0 273 0 272 223 131
c122 71 226 130 230 131 5 1 114 -60 243 -135z m-160 -222 c35 -96 64 -175 64
-178 0 -2 -58 -4 -130 -4 -71 0 -130 4 -130 9 0 5 22 67 49 137 26 71 54 154
61 184 7 30 15 48 18 40 2 -8 33 -93 68 -188z m-568 -301 l-3 -130 -75 45
c-87 52 -151 111 -187 171 l-24 42 29 43 c45 64 98 111 182 161 l75 44 3 -123
c1 -68 1 -181 0 -253z m1064 327 c78 -45 165 -125 191 -175 15 -29 15 -31 -18
-80 -19 -28 -53 -67 -77 -86 -41 -33 -160 -107 -172 -107 -3 0 -6 110 -6 245
0 135 2 245 4 245 2 0 37 -19 78 -42z m-1275 -345 c23 -23 79 -64 125 -91 l83
-49 6 -124 c6 -119 30 -216 62 -256 27 -35 -124 13 -200 63 -165 110 -243 325
-187 515 l16 54 26 -35 c15 -19 45 -54 69 -77z m1518 55 c21 -72 19 -192 -4
-267 -47 -151 -176 -274 -325 -312 -26 -6 -49 -10 -51 -7 -2 2 8 33 22 68 23
56 27 83 31 195 l4 130 85 50 c78 46 203 160 203 185 0 6 4 10 10 10 5 0 16
-23 25 -52z m-348 -320 c-6 -115 -26 -197 -63 -253 -17 -26 -21 -27 -73 -21
-31 4 -78 14 -106 23 -50 16 -195 93 -195 103 0 5 430 260 439 260 2 0 1 -51
-2 -112z m-684 -36 l188 -110 -70 -42 c-130 -77 -273 -104 -306 -57 -33 47
-55 146 -55 248 l0 100 28 -15 c15 -8 112 -64 215 -124z m303 -177 c91 -52
156 -75 234 -85 l55 -6 -52 -50 c-178 -172 -458 -173 -639 -2 l-56 53 73 12
c55 9 101 26 179 67 58 30 110 55 116 55 7 1 47 -19 90 -44z"/>
</g>
</svg>
