<svg width="250" height="100" viewBox="0 0 250 100" fill="none" xmlns="http://www.w3.org/2000/svg">
<rect width="250" height="100" fill="#E5E5E5"/>
<rect width="250" height="100" fill="#312E38"/>
<path d="M91.918 57.7109H100.988V62H86.75V36.4062H91.918V57.7109ZM120.869 51.5059C120.869 54.9395 120.055 57.6055 118.426 59.5039C116.809 61.4023 114.559 62.3516 111.676 62.3516C108.805 62.3516 106.549 61.4141 104.908 59.5391C103.268 57.6523 102.436 55.0156 102.412 51.6289V47.252C102.412 43.7363 103.227 40.9941 104.855 39.0254C106.484 37.0449 108.746 36.0547 111.641 36.0547C114.488 36.0547 116.732 37.0273 118.373 38.9727C120.014 40.9062 120.846 43.625 120.869 47.1289V51.5059ZM115.684 47.2168C115.684 44.9082 115.355 43.1914 114.699 42.0664C114.043 40.9414 113.023 40.3789 111.641 40.3789C110.27 40.3789 109.256 40.9238 108.6 42.0137C107.943 43.0918 107.604 44.7383 107.58 46.9531V51.5059C107.58 53.7441 107.914 55.3965 108.582 56.4629C109.25 57.5176 110.281 58.0449 111.676 58.0449C113.023 58.0449 114.025 57.5293 114.682 56.498C115.338 55.4551 115.672 53.8438 115.684 51.6641V47.2168ZM141.98 59.0996C140.984 60.1777 139.76 60.9922 138.307 61.543C136.865 62.082 135.283 62.3516 133.561 62.3516C130.619 62.3516 128.334 61.4434 126.705 59.627C125.076 57.7988 124.238 55.1445 124.191 51.6641V47.0586C124.191 43.5312 124.959 40.8184 126.494 38.9199C128.041 37.0098 130.291 36.0547 133.244 36.0547C136.021 36.0547 138.113 36.7402 139.52 38.1113C140.938 39.4824 141.758 41.6328 141.98 44.5625H136.953C136.812 42.9336 136.473 41.8262 135.934 41.2402C135.395 40.6426 134.551 40.3438 133.402 40.3438C132.008 40.3438 130.994 40.8535 130.361 41.873C129.729 42.8926 129.4 44.5156 129.377 46.7422V51.3828C129.377 53.7148 129.723 55.4141 130.414 56.4805C131.117 57.5352 132.266 58.0625 133.859 58.0625C134.879 58.0625 135.705 57.8574 136.338 57.4473L136.795 57.1309V52.4375H133.174V48.5352H141.98V59.0996ZM163.654 51.5059C163.654 54.9395 162.84 57.6055 161.211 59.5039C159.594 61.4023 157.344 62.3516 154.461 62.3516C151.59 62.3516 149.334 61.4141 147.693 59.5391C146.053 57.6523 145.221 55.0156 145.197 51.6289V47.252C145.197 43.7363 146.012 40.9941 147.641 39.0254C149.27 37.0449 151.531 36.0547 154.426 36.0547C157.273 36.0547 159.518 37.0273 161.158 38.9727C162.799 40.9062 163.631 43.625 163.654 47.1289V51.5059ZM158.469 47.2168C158.469 44.9082 158.141 43.1914 157.484 42.0664C156.828 40.9414 155.809 40.3789 154.426 40.3789C153.055 40.3789 152.041 40.9238 151.385 42.0137C150.729 43.0918 150.389 44.7383 150.365 46.9531V51.5059C150.365 53.7441 150.699 55.3965 151.367 56.4629C152.035 57.5176 153.066 58.0449 154.461 58.0449C155.809 58.0449 156.811 57.5293 157.467 56.498C158.123 55.4551 158.457 53.8438 158.469 51.6641V47.2168Z" fill="#FFFCFC"/>
</svg>
